<svg id="Calque_1" data-name="Calque 1" xmlns="http://www.w3.org/2000/svg" width="237.21mm" height="110.46mm" viewBox="0 0 672.41 313.12">
  <title>ALPHABET_reduit</title>
  <path d="M56.69,31.52h-9.8l-7.07,27.1H23.23L11.6,41.47l8.12-5.68H33l6.93,5.68,5.53-9.95H24.56V23.61h23Zm-21.84,19,4.27-7.7H22l5.46,7.7Z" transform="translate(-11.6 -8.98)"/>
  <path d="M108.28,31.59,94.77,59.39,71.52,50.5h19l9.24-18.91H83.22V42.87h-8V19.13L83.22,9V23.61H98.13Z" transform="translate(-11.6 -8.98)"/>
  <path d="M151.26,39.44l-9.1,19.18h-13.3l-10.16-8h18.56l5.6-11.2-5-7.92h-7.56L123.74,42.8h-7.91V18.08L123.74,9V40.63l3.86-17h14.28Z" transform="translate(-11.6 -8.98)"/>
  <path d="M188,42.8l-12.67,26L150,58.69l21.71-.07,7.77-15.82H163.08v9.87h-7.91v-23l7.91-9.1V35.79h15.55Z" transform="translate(-11.6 -8.98)"/>
  <path d="M225,50.5H247.3l-8.68,8.12H220.9L211.52,42.8l9.1-19.19h17.93l9.17,7.91L233.64,42.8l6-11.28h-14L219.92,42.8Z" transform="translate(-11.6 -8.98)"/>
  <path d="M284.61,58.69,257.93,68.77,246.31,58.62,257,35.79h17.72L284,42.73l-13.66,10,5.53-9.94H262.2L256,56l3,2.59Z" transform="translate(-11.6 -8.98)"/>
  <path d="M344.24,9V42.8h-7.91V34.18l-5.74,24.44H314L304.62,42.8l9.1-19.19H327L336.33,31V18.08Zm-8.12,22.61h-17.5L313,42.8l5,7.7h7.56Z" transform="translate(-11.6 -8.98)"/>
  <path d="M378.54,21.09V53.23h-7.91V45l-5,23.38H350.33L338.71,48.89l14.35-13.1h8.05l8.54,6.8,1-2V30.19Zm-9,21.71H356.28l-8,6.72,6.16,10.78h6.23Z" transform="translate(-11.6 -8.98)"/>
  <path d="M415.78,50.5h22.33l-8.68,8.12H411.72L402.34,42.8l9.1-19.19h17.92l9.17,7.91L432.16,46l-7.35-2.66v-.07L412.7,38.81l-2,4Zm.56-19-3.5,7.08H427l3.36-7.08Z" transform="translate(-11.6 -8.98)"/>
  <path d="M448.75,68.77V68.7L437.13,58.62l10.64-22.83h17l9.38,7-5.32,11.41-18.76-5L446.86,56l3,2.59,25.55.07-26.6,10.08Zm4.27-26-2.73,6h12.6l2.73-6Z" transform="translate(-11.6 -8.98)"/>
  <path d="M504.26,31.52l-9.1-7.91h26.67l9.1,7.91H504.26ZM521.83,42.8H511.12V58.62l-8,9.8V42.8l-8-7h26.67Z" transform="translate(-11.6 -8.98)"/>
  <path d="M555.64,42.8H544.93V58.62l-8,9.8V42.8l-8-7h26.67Zm-.28-11.21H533.1l10.5-8h21.91Z" transform="translate(-11.6 -8.98)"/>
  <path d="M588.82,31.59h-17.5l8.89,4.2H586v7h-5.81V58.62l-8,9.8V42.8l-9.66-7h9.66l-5.18-4.2v-8H599Z" transform="translate(-11.6 -8.98)"/>
  <path d="M608.28,35.79h7.35v7H604.78L590.57,71.22l-.07-15,6.44-13.37-8-7H600.3l5.88-12.18h11.69L627,31.52H610.45Z" transform="translate(-11.6 -8.98)"/>
  <path d="M672.05,50.64l-4.48,17.15-8.54,1L643.41,58.62l4.48-8.12,19.26-1.61,3.64-7.49-5.46,4.13H654.06l-3.64-5.32-1.33-1.9,7.42-14.7h17.71l9.17,7.91H677l-4.41,17,11.41-1Zm-6.65,1.82-12.53,3.29,8.26,5.39Zm6.79-13.86,3.43-7.08H661.76l-3.92,7.08Z" transform="translate(-11.6 -8.98)"/>
  <path d="M53,134.5l-21.21,9.17-3.22-9.17,9.31-19H27.43L20.92,126.8H13V102.08L20.92,93v31.65l3.85-17H37l9,7.91-9,19Z" transform="translate(-11.6 -8.98)"/>
  <path d="M85,107.61v27l-8,9.8V119.94l-20.17,24.5-4.9-10.64,8.89-32.91L51.71,93H72L60.74,131.07,77,107.61Z" transform="translate(-11.6 -8.98)"/>
  <path d="M117.38,119.79v22.83l-7.91,9.17V130.3L89,151.79l-4.34-7.35,9.87-28.92-9.1-7.91h19.47L94,137.72l15.48-17.93Z" transform="translate(-11.6 -8.98)"/>
  <path d="M170.78,134.5l-28.91,11.27V134.5l13.37-26.89h8.26l-13,26.89Zm-5.39-30.74h-8.33l3.92-8h8.33Z" transform="translate(-11.6 -8.98)"/>
  <path d="M189.61,142.62l-26,9.59v-9.59l11.13-22.83h8.12l-11.06,22.83Zm-4.69-27.1H176.8l3.85-7.91h8.12Z" transform="translate(-11.6 -8.98)"/>
  <path d="M255.21,119.72l-11.77,2.46-9.8,20.44h-7L211.73,126.8l6.44-7h18.06l6-12.18h8.26l-5.81,12.11Zm-21.15,4.42-12.88,2.66,7.91,7.35Zm18.28-20.38H244l3.93-8h8.33Z" transform="translate(-11.6 -8.98)"/>
  <path d="M275.5,133.94l-9,18.48-6.58,1.05-14.91-15,6.44-6.86h16.94l5.88-11.84h8.12l-5.74,11.77h11.83Zm-9.17,1.68-11.9,2.17,7.56,6.58Zm18.13-20.1h-8.12l3.85-7.91h8.12Z" transform="translate(-11.6 -8.98)"/>
  <path d="M330.94,144.58l-5.11-14.49-10.92,14.35L310,133.8l8.89-32.91L309.8,93h20.3l-11.2,37.88,14.77-23.25h6.16l9.1,7.91h-12l-6.86,9,4.41,9.94H352.5Z" transform="translate(-11.6 -8.98)"/>
  <path d="M368.6,143.67l-.14-.49v.07l-1.19-5-1-3.78-2.94-12.11-3.92,4.41h-7.91V102.08l7.91-9.1v31.93l6.51-17.3h6.65l9.38,7.91H369.44l-3.29,3.64,8.05,15.27-.07.07h15.68Z" transform="translate(-11.6 -8.98)"/>
  <path d="M412.42,153.19l-4.69-13.3L397,153l-4.34-7.91,9.8-29.55-9.1-7.91h19.53l-12,34.31,14.14-22.13h6.16l8.68,6.94h-11.2l-6.44,7.77,3.57,8.12H435Z" transform="translate(-11.6 -8.98)"/>
  <path d="M491.59,134.5l-8.68,8.12H467.23l-5.81-4.48,9.66-22.62-9.1-7.91H481.3L470.52,134.5Z" transform="translate(-11.6 -8.98)"/>
  <path d="M562.85,107.61v27l-8,9.8V119.94l-15.33,24.5-4.2-10.22,4.55-14.5-18.06,24.72-4.69-10,7.49-18.91-9.1-7.91h18.9l-7.84,22.9,13.58-22.9H549l-6.37,24.79,12.25-24.79Z" transform="translate(-11.6 -8.98)"/>
  <path d="M618.08,134.5l-21.21,9.17-3.22-9.17,8-19-20.58,28.22-1.54-9.24,3.15-19L575,126.59v7.91l-8,9.24V107.61h8v15.76l4.55-15.76h12.95l-8,25.21,13.23-25.21h6.3l6.65,7.91-8.68,19Z" transform="translate(-11.6 -8.98)"/>
  <path d="M658.82,119.79v22.83l-8,9.17V130.93L635.3,151.79l-2.24-7.35,4.41-14.84-18.41,22.19-4.35-7.35,7.35-17.64-7.49-7h17.79l-9.73,23.32,14.07-23.32h10.15L639,141.5l11.83-21.71Z" transform="translate(-11.6 -8.98)"/>
  <path d="M49.27,191.61v27l-8,9.8V203.94l-22.4,24.5-4.7-10,7.5-18.9-9.11-7.92H31.49l-8.33,24.3,18.13-24.3Z" transform="translate(-11.6 -8.98)"/>
  <path d="M82.73,203.8v22.82l-8,9.17V214l-20.1,21.7-5-7.91,7-17.43-7.35-6.58H66.91l-7.56,19.67,15.4-19.67Z" transform="translate(-11.6 -8.98)"/>
  <path d="M147.9,199.6l-11.9,27H120.52l-9.38-15.82,9.1-19.19h18.49Zm-8.26,0h-14.5l-5.6,11.2,5,7.7h6.24Z" transform="translate(-11.6 -8.98)"/>
  <path d="M186.33,207.44l-9.1,19.18H158.46l-9.38-15.82,9.1-19.19H177Zm-8.4,0-5-7.84h-9.87l-5.6,11.2,5,7.7h9.81Z" transform="translate(-11.6 -8.98)"/>
  <path d="M225.6,207.44l-9.1,19.18h-9l3.86-7.7-13.66,7.7-9.38-15.82,9.1-19.19h8.89L202.63,199l13.59-7.43Zm-8.4,0-5-7.84h-9.87l-5.6,11.2,5,7.7h9.81Z" transform="translate(-11.6 -8.98)"/>
  <path d="M266.06,199.53l-11.84,27.09H235.11l-9.17-8,11.9-27h19Zm-8.19,0H242.74L235.53,216l2.94,2.52h10.64Z" transform="translate(-11.6 -8.98)"/>
  <path d="M312.18,220.53l-15.68-7.14v13.23l-8,9.8V203.8h8v8.75h11.27l6-13H298.18l-9.1-7.92H313.3l8.82,6.87Z" transform="translate(-11.6 -8.98)"/>
  <path d="M350.89,213.6H366.5v-9.8h8v32.62l-8-9.8v-6.44H348.23l-6.58-4.48,11.2-24.93,30.94,8.83H357Z" transform="translate(-11.6 -8.98)"/>
  <path d="M431.11,191.61l-9.1,7.92h-5.6l-5,8.26V218.5l-8,9.24V191.61h8v11.91l4.41-11.91Z" transform="translate(-11.6 -8.98)"/>
  <path d="M455.75,203.8,446,210.73h-5.6l-4.34,7.07v8.82l-8,9.8V203.8h8v9.66l3.22-9.66Z" transform="translate(-11.6 -8.98)"/>
  <path d="M500.48,203.8l8.19,7-8.33,17.08-29-9.45h25.55l3.5-7.63H486.76l-8.19-7,6.51-12.19h27.16l-10.15,8h-12.6L487,203.8Z" transform="translate(-11.6 -8.98)"/>
  <path d="M558.72,218.5l-28.91,11.27V218.5l9.31-19L530,191.61h13l5.81-11.83h8.33l-5.81,11.83H556v7.92h-8.54l-9.17,19Z" transform="translate(-11.6 -8.98)"/>
  <path d="M554.72,226.62l7.64-15.82-8.19-7h11.48l5.88-12.19h8.19l-6,12.19h6v7h-9.45l-7.7,15.82H582l-27.31,10.92Z" transform="translate(-11.6 -8.98)"/>
  <path d="M645.59,191.61v27l-8,9.8V204.92l-4.83,21.7H616.32l-10.15-8,9.31-19.11-9-7.92h19l.07-.07v.07L615.76,216l3.3,2.59H628l9.66-19v-8Z" transform="translate(-11.6 -8.98)"/>
  <path d="M680.8,203.8v22.82l-8,9.8V216l-4.55,20.44h-18.7l-4.34-9.8,8-15.82-8-7h17.65l-9.32,22.82h10.79l8.47-16V203.8Z" transform="translate(-11.6 -8.98)"/>
  <path d="M45.21,283.53,20.15,312.44l-6-10,7.5-18.9-9.11-7.92H31.21L24.49,298l17.15-22.34H48.5l9.1,7.92Z" transform="translate(-11.6 -8.98)"/>
  <path d="M83.5,294.8H73.91L51.43,320.42l-5.11-9.8,5.32-15.82-7.28-7H61.94L56,306.21,70.48,287.8H75Z" transform="translate(-11.6 -8.98)"/>
  <path d="M148.74,283.53l-19,28.91-5.32-10.22,7.14-18.76-20.94,29-4.69-10,7.56-19.18-8.82-7.64h18.55l-6.65,19.54,13.8-19.54h8.82l-5,19.54L145,275.75v-.14h6.86l9.1,7.92Z" transform="translate(-11.6 -8.98)"/>
  <path d="M205.16,294.8h-9.52l-17.78,25.62-6.45-7.35,7.92-19-18.7,26.32-6.44-7.35,7.35-18.27-8.47-7h18.2l-7.21,20-.07.28,12.19-20.3h10.71l-6.44,20.65,11.27-20.65H197Z" transform="translate(-11.6 -8.98)"/>
  <path d="M270.05,291.93l-11.41,18.69-.08.07h-4.69v-.07H252l-3.15-11.13-4.34,11.2h-5.25l-9.59-8.4h11.2l6.93-6.58-3.43-12.11H232.24l9.87-8h6.65l3.43,12.19L257,275.61h5.26l9.66,8H260.53L253.1,291l3,10.85Z" transform="translate(-11.6 -8.98)"/>
  <path d="M306.73,292.56l-13.38,18.06H286.7L284,298.16,268.78,311v-8.61l13.58-11.55-1.68-7.28H269.9l9-8.06h6.65l2.31,10.58,12.33-10.51v8.76l-10.65,9,2,9Z" transform="translate(-11.6 -8.98)"/>
  <path d="M326.74,322.1l7.07-19.67h8.61l-2.94,8.19Z" transform="translate(-11.6 -8.98)"/>
  <path d="M373.5,310.62l2.94-8.19h8.61l-2.94,8.19Z" transform="translate(-11.6 -8.98)"/>
  <path d="M447.77,265.18l-24.57,9.66,12-9.73Z" transform="translate(-11.6 -8.98)"/>
  <path d="M497,267.63l-18.2,7.14,12-9.73,12.53.07,12,9.73Z" transform="translate(-11.6 -8.98)"/>
  <path d="M574,274.84l-24.58-9.66,12.53-.07Z" transform="translate(-11.6 -8.98)"/>
  <path d="M612.54,295.29l7.07-19.68h8.61l-2.94,8.2Z" transform="translate(-11.6 -8.98)"/>
</svg>
